<svg width="38" height="39" viewBox="0 0 38 39" fill="none" xmlns="http://www.w3.org/2000/svg">
<path d="M9.98943 21.4257V35.4585C9.98943 36.2891 9.65949 37.0856 9.0722 37.6729C8.48491 38.2602 7.68838 38.5901 6.85782 38.5901H3.13161C2.30105 38.5901 1.50452 38.2602 0.917227 37.6729C0.329936 37.0856 6.17244e-10 36.2891 6.17244e-10 35.4585V21.4257C-1.64623e-05 20.5934 0.329286 19.7948 0.916013 19.2043C1.50274 18.6139 2.29924 18.2796 3.13161 18.2743H6.85782C7.69019 18.2796 8.48669 18.6139 9.07342 19.2043C9.66014 19.7948 9.98944 20.5934 9.98943 21.4257ZM23.7447 12.3282V35.518C23.7395 36.3503 23.4051 37.1468 22.8147 37.7336C22.2243 38.3203 21.4257 38.6496 20.5933 38.6496H16.8869C16.0545 38.6496 15.2559 38.3203 14.6655 37.7336C14.075 37.1468 13.7407 36.3503 13.7355 35.518V12.3282C13.7355 11.4924 14.0675 10.6908 14.6585 10.0998C15.2495 9.50882 16.0511 9.1768 16.8869 9.1768H20.5933C21.4291 9.1768 22.2307 9.50882 22.8217 10.0998C23.4127 10.6908 23.7447 11.4924 23.7447 12.3282ZM37.5 3.15143V35.518C37.4948 36.3503 37.1604 37.1468 36.57 37.7336C35.9796 38.3203 35.181 38.6496 34.3486 38.6496H30.6422C29.8098 38.6496 29.0112 38.3203 28.4208 37.7336C27.8303 37.1468 27.496 36.3503 27.4907 35.518V3.15143C27.4907 2.31562 27.8228 1.51404 28.4138 0.923032C29.0048 0.332024 29.8064 0 30.6422 0H34.3486C35.1844 0 35.986 0.332024 36.577 0.923032C37.168 1.51404 37.5 2.31562 37.5 3.15143Z" fill="white"/>
</svg>
