<svg width="38" height="38" viewBox="0 0 38 38" fill="none" xmlns="http://www.w3.org/2000/svg">
<path d="M22.9167 12.5C22.3264 12.5 21.8319 12.3 21.4333 11.9C21.0347 11.5 20.8347 11.0056 20.8333 10.4167V2.08333C20.8333 1.49306 21.0333 0.998611 21.4333 0.6C21.8333 0.201389 22.3278 0.00138889 22.9167 0H35.4167C36.0069 0 36.5021 0.2 36.9021 0.6C37.3021 1 37.5014 1.49444 37.5 2.08333V10.4167C37.5 11.0069 37.3 11.5021 36.9 11.9021C36.5 12.3021 36.0056 12.5014 35.4167 12.5H22.9167ZM2.08333 20.8333C1.49306 20.8333 0.998611 20.6333 0.6 20.2333C0.201389 19.8333 0.00138889 19.3389 0 18.75V2.08333C0 1.49306 0.2 0.998611 0.6 0.6C1 0.201389 1.49444 0.00138889 2.08333 0H14.5833C15.1736 0 15.6688 0.2 16.0688 0.6C16.4688 1 16.6681 1.49444 16.6667 2.08333V18.75C16.6667 19.3403 16.4667 19.8354 16.0667 20.2354C15.6667 20.6354 15.1722 20.8347 14.5833 20.8333H2.08333ZM22.9167 37.5C22.3264 37.5 21.8319 37.3 21.4333 36.9C21.0347 36.5 20.8347 36.0056 20.8333 35.4167V18.75C20.8333 18.1597 21.0333 17.6653 21.4333 17.2667C21.8333 16.8681 22.3278 16.6681 22.9167 16.6667H35.4167C36.0069 16.6667 36.5021 16.8667 36.9021 17.2667C37.3021 17.6667 37.5014 18.1611 37.5 18.75V35.4167C37.5 36.0069 37.3 36.5021 36.9 36.9021C36.5 37.3021 36.0056 37.5014 35.4167 37.5H22.9167ZM2.08333 37.5C1.49306 37.5 0.998611 37.3 0.6 36.9C0.201389 36.5 0.00138889 36.0056 0 35.4167V27.0833C0 26.4931 0.2 25.9986 0.6 25.6C1 25.2014 1.49444 25.0014 2.08333 25H14.5833C15.1736 25 15.6688 25.2 16.0688 25.6C16.4688 26 16.6681 26.4944 16.6667 27.0833V35.4167C16.6667 36.0069 16.4667 36.5021 16.0667 36.9021C15.6667 37.3021 15.1722 37.5014 14.5833 37.5H2.08333Z" fill="white"/>
</svg>
