<svg width="38" height="42" viewBox="0 0 38 42" fill="none" xmlns="http://www.w3.org/2000/svg">
<path fill-rule="evenodd" clip-rule="evenodd" d="M37.5 31.25C37.5 34.0127 36.4026 36.6622 34.4491 38.6157C32.4956 40.5692 29.846 41.6667 27.0834 41.6667H16.6667C16.1142 41.6667 15.5843 41.4472 15.1936 41.0565C14.8029 40.6658 14.5834 40.1359 14.5834 39.5833C14.5834 39.0308 14.8029 38.5009 15.1936 38.1102C15.5843 37.7195 16.1142 37.5 16.6667 37.5H27.0834C28.741 37.5 30.3307 36.8415 31.5028 35.6694C32.6749 34.4973 33.3334 32.9076 33.3334 31.25V10.4167C33.3334 8.75906 32.6749 7.16935 31.5028 5.99725C30.3307 4.82515 28.741 4.16667 27.0834 4.16667H16.6667C16.1142 4.16667 15.5843 3.94717 15.1936 3.55647C14.8029 3.16577 14.5834 2.63587 14.5834 2.08333C14.5834 1.5308 14.8029 1.00089 15.1936 0.610194C15.5843 0.219493 16.1142 0 16.6667 0H27.0834C29.846 0 32.4956 1.09747 34.4491 3.05097C36.4026 5.00447 37.5 7.65399 37.5 10.4167V31.25Z" fill="white"/>
<path fill-rule="evenodd" clip-rule="evenodd" d="M15.5625 11.075C15.7496 10.8752 15.9742 10.7142 16.2235 10.6012C16.4728 10.4883 16.742 10.4255 17.0156 10.4166C17.2891 10.4077 17.5618 10.4528 17.8179 10.5493C18.0741 10.6459 18.3087 10.7919 18.5083 10.9791L28.5083 20.3541C28.7165 20.549 28.8824 20.7845 28.9958 21.0461C29.1093 21.3077 29.1678 21.5898 29.1678 21.875C29.1678 22.1601 29.1093 22.4422 28.9958 22.7038C28.8824 22.9654 28.7165 23.2009 28.5083 23.3958L18.5083 32.7708C18.3086 32.9579 18.074 33.1039 17.8179 33.2004C17.5617 33.2968 17.2891 33.3419 17.0156 33.333C16.742 33.3241 16.4729 33.2614 16.2236 33.1485C15.9743 33.0356 15.7496 32.8747 15.5625 32.675C15.3754 32.4753 15.2294 32.2406 15.1329 31.9845C15.0365 31.7284 14.9914 31.4558 15.0003 31.1822C15.0092 30.9087 15.0719 30.6395 15.1848 30.3902C15.2977 30.1409 15.4586 29.9163 15.6583 29.7291L21.8146 23.9583H2.08333C1.5308 23.9583 1.00089 23.7388 0.610194 23.3481C0.219493 22.9574 0 22.4275 0 21.875C0 21.3224 0.219493 20.7925 0.610194 20.4018C1.00089 20.0111 1.5308 19.7916 2.08333 19.7916H21.8146L15.6583 14.0208C15.4585 13.8337 15.2975 13.6091 15.1846 13.3598C15.0716 13.1105 15.0089 12.8413 15 12.5677C14.9911 12.2942 15.0362 12.0215 15.1327 11.7654C15.2292 11.5093 15.3753 11.2746 15.5625 11.075Z" fill="white"/>
</svg>
