<svg width="38" height="38" viewBox="0 0 38 38" fill="none" xmlns="http://www.w3.org/2000/svg">
<path d="M26.925 22.5C27.075 21.2625 27.1875 20.025 27.1875 18.75C27.1875 17.475 27.075 16.2375 26.925 15H33.2625C33.5625 16.2 33.75 17.4562 33.75 18.75C33.75 20.0438 33.5625 21.3 33.2625 22.5M23.6063 32.925C24.7313 30.8437 25.5938 28.5938 26.1938 26.25H31.725C29.9084 29.378 27.0265 31.7475 23.6063 32.925ZM23.1375 22.5H14.3625C14.175 21.2625 14.0625 20.025 14.0625 18.75C14.0625 17.475 14.175 16.2188 14.3625 15H23.1375C23.3062 16.2188 23.4375 17.475 23.4375 18.75C23.4375 20.025 23.3062 21.2625 23.1375 22.5ZM18.75 33.675C17.1938 31.425 15.9375 28.9312 15.1688 26.25H22.3312C21.5625 28.9312 20.3062 31.425 18.75 33.675ZM11.25 11.25H5.775C7.57245 8.11319 10.4525 5.73983 13.875 4.575C12.75 6.65625 11.9062 8.90625 11.25 11.25ZM5.775 26.25H11.25C11.9062 28.5938 12.75 30.8437 13.875 32.925C10.4592 31.7481 7.58304 29.3779 5.775 26.25ZM4.2375 22.5C3.9375 21.3 3.75 20.0438 3.75 18.75C3.75 17.4562 3.9375 16.2 4.2375 15H10.575C10.425 16.2375 10.3125 17.475 10.3125 18.75C10.3125 20.025 10.425 21.2625 10.575 22.5M18.75 3.80625C20.3062 6.05625 21.5625 8.56875 22.3312 11.25H15.1688C15.9375 8.56875 17.1938 6.05625 18.75 3.80625ZM31.725 11.25H26.1938C25.606 8.92802 24.7371 6.68645 23.6063 4.575C27.0562 5.75625 29.925 8.1375 31.725 11.25ZM18.75 0C8.38125 0 0 8.4375 0 18.75C0 23.7228 1.97544 28.4919 5.49175 32.0083C7.23285 33.7494 9.29983 35.1305 11.5747 36.0727C13.8495 37.015 16.2877 37.5 18.75 37.5C23.7228 37.5 28.4919 35.5246 32.0083 32.0083C35.5246 28.4919 37.5 23.7228 37.5 18.75C37.5 16.2877 37.015 13.8495 36.0727 11.5747C35.1305 9.29983 33.7494 7.23285 32.0083 5.49175C30.2672 3.75065 28.2002 2.36953 25.9253 1.42726C23.6505 0.484983 21.2123 0 18.75 0Z" fill="white"/>
</svg>
